<svg id="Layer_1" xmlns="http://www.w3.org/2000/svg" viewBox="0 0 331 102.7"><style>.st0{fill:#fff}</style><path class="st0" d="M292.1 57.7c-.9-1.9-1.2-3.8-.8-5.8.4-2.8.8-4.9 1.8-7.7.9-1.4 1.2-3.1 2.1-4.5l-.1-.1c.9-.8 1-2.5 1.5-3.3 1.8.3 3 1.8 4.3 3.4.8 2 .2 3.9-.6 5.8-2.3 4.7-4.5 9.6-7.3 14-.1-.8-1.1-1.3-.9-1.8m-1.8-2.6c-.9 0-1.7-.6-2.2-1.2-2.2-2.4-4.8-4.9-6.5-7.5-.3-1.7-1.7-3.3-.9-5.1 1.2-2.4 3.7-3.5 6-4.1.3-.9.9.1 1.4-.4 2.3-.5 4.6-1.9 7.1-1-1.7 2.6-2.9 5.7-3.7 8.5-.5 0-.3.6-.5.8-1.3 3.4-1.1 6.2-.7 10m-2.8 14.5c-8.1-1-16.7-.3-24 2.6-.1-1.4-.4-2.7.3-3.9 4.3-5.6 13-4.4 18.7-2.6.7.3 1.4.7 2.2.7.5 1.7 3 1.2 2.8 3.2m-5.7 8.1c-3.8 2.4-8.6 5.8-13.3 2.9-2.1-1.5-3.9-3.6-4.5-5.9 1.6-1.4 3.8-1.8 5.9-1.6.4 0 .8-.6 1.1 0 1-.6 1.9-.1 3-.4l.3.3c2.3-.1 5.2.1 7.6.8 1 0 2.2.1 3 .8-.4 1.3-2.1 2.2-3.1 3.1M293.7 64c-.3-1.2-.1-2.6-.7-3.7.7-.5 1.3-1.2 2.2-1.1.8-1 2.2-.8 2.9-1.8l.4.4c1.2-.2 1.9-.7 2.9-1.4 1.7-.4 3.9-1.1 4.4-3.2 2.7-2.7 3.2-6.2 3.9-9.9-.4-1.1-.2-2.5-1.2-3.4.4-.6-.3-1.3-.7-1.7-1.3-1.8-2.8-3.5-4.7-5.1-.4-1-1.9-1.2-2.6-2.2-2.2-1.2-4.7-2.7-7.1-2.5l-.1-.4c-1.1.2-2 .2-3.2.5-1.3-.3-2.6.5-4 .4-2.6 1-5.5 1.7-7.7 3.5-2.1.8-3.6 2.7-4.8 4.4-.9.5-1.1 1.7-1.4 2.7.2 0 .5-.1.6.1.1.1-.1.2-.1.3-.1 0-.3.1-.4-.1v1.6c0 1 .6 2 1 2.7 1 3.2 3.6 5.9 5.5 8.8h-8c-3.8.8-7.6 1-11.1 3-2 1.3-4 3.7-4.8 6.3-.6 3.8-1.3 8.3 0 11.9 0 .7.5 1.5.1 2.1h.3c2 6.2 6 13.8 13 15.8 4.3.9 7.9-1.7 10.1-4.7 1-.6 1.3-1.9 2.2-2.5-.4-1.4 1.1-1.7 1.4-2.9 2.6-1.9 2.6-5.6 5.3-7.5.4.1.9-.2 1.1.3-.2 4.7-1.6 8.8-3 13-1.4 4.9-4.4 9.8-9.1 13.1 0 .8-1.2.9-.9 1.4l1.6-.5c1.5-.2 2.5-2.1 3.7-3h.3c5.8-6.1 10.3-12.7 12.5-20.2.7-3 1-7.2.3-10.3.1-.7-.6-1.4-.5-1.9l.4-2.3z"/><path class="st0" d="M293.6 66.2c.1.9 1.1 1 1.8 1.1 1.8-.6 3.9-.9 4.8-2.9 3.6-2.3 7-4.9 11-6.3 3.4-1 8.5-3 11.5.1 2 6.9-2.2 13-5.2 18.7-2.1 2.2-3.3 6.3-7 5.6-1.4-.7-3-1.9-3.1-3.6-.1-.7-1-.7-.3-1.5-.9-.8-.1-2.4-.4-3.3.4-1.7 1.2-3.2 2.9-4.1 1.8-.6 3.9-.2 5.2 1.1.7 2.2.3 4.9-1.4 6.6h.4c1.4-1.4 3-2.9 4-4.7-.1-.5.2-.9.4-1.3.1-.4.4-1 0-1.2 0-.2.2-.3.3-.4-.4-.2-.5-.7-.3-1-1.3-2.1-3-3.3-5.2-4.1-5.8-2-11.1 1.3-15.2 5.1-.2-.1-.1-.3-.1-.4-.9.7-.4 2.2-1.2 2.7.2 1.1-.1 3.1-.4 4 .7.5.1 1.5.5 2 .4.7-.3 1.7.4 2.2.7 2.8 3.3 4.6 5.3 6.6 1 .7 2.4.7 3.2 1.6.5 1.2 1.8-.1 2.5 1.1 1.5.2 3.3.8 4.9.5.8 0 1.9-.2 2.6-.7 1.7-.3 3.2-1.4 4.5-2.7.6-.2.8-1.1 1.4-1.2.6-1.4 1.8-2.4 2.5-3.7-.4-1 1.1-1.2 1.1-2.2-.1 0-.2-.1-.3-.1 1.5-2.3 3-5.4 4.5-8.1-.2-.6.5-1.2.8-1.8 1.4-3.7 1.3-7.2.7-11.1-1.1-2.8-3-5-5.6-6.6-4.8-1.7-9.8-1.6-14.4.9-.3 0-.7-.1-.8.3l-.1-.1c-5.6 2.8-11.4 6.1-15.8 11l-.4 1.9zM14.6 39.7c-.2 10.6-.4 21.1-.4 31.7 0 11.1.2 14.6.5 21.7l-.5.5c-6.4 0-7.9 0-13.6.2l-.4-.5c.3-8 .5-12.6.5-21.7C.7 52.1.5 48.2 0 39.9l.3-.5c5.5.1 7.3.1 13.9-.2l.4.5zM45.4 65.4c-1.1-.6-1.8-1.1-3.1-1.1-5.2 0-5.2 5.1-5.2 8.5 0 5.3.5 13.9.8 20.1l-.4.5c-6.1-.1-7.4 0-13 .2l-.5-.3c.2-6.4.2-12.6.2-18.9 0-10.6-.2-14.1-.7-19.8l.5-.6c5.6-.8 7-1.1 12.7-2.3l.6.6-.2 7c2.5-5.7 6-7.4 9.1-7.4.5 0 1.1.1 1.6.1l.5.5L46.2 65l-.8.4zM87.2 82.4l-.5 8.6-.5.6c-4.1 1.6-6.8 2.8-13.2 2.8-5.5 0-15.9-.9-20.4-11.3-1.2-2.7-1.8-6.4-1.8-10 0-13.3 8-21.1 20-21.1 1.8 0 3.5.2 5.4.7 2.6.6 8.5 2.5 11.2 11.5 1.1 3.8 1.1 7.7 1.2 11.4l-.5.5-24.7.5c.3 1.5.5 3.1 1.7 4.7 1.8 2.8 5 4.2 9.6 4.2 5.6 0 9-1.8 11.9-3.3l.6.2zM76.3 68.1c0-1.8-.1-3.6-1.1-5.3-.8-1.4-2.4-2.7-4.9-2.7-1.1 0-2.1.2-3.1.8-2.9 1.8-3.4 5.1-3.7 7.4l12.8-.2zM108.8 93.5c-5.6-.1-7.7 0-12.8.2l-.5-.5c.3-7.6.5-12.2.5-20.5 0-4.5 0-9-.1-13.6-.2-12.4-.2-14.9-1-24.3l.3-.5 13.1-2.1.5.5c-.3 8.3-.4 11.7-.4 19 0 24.2.4 32.2.8 41.1l-.4.7zM152.1 76.3c0 7.2 0 9.1.5 16.6l-.4.5c-5-.1-6.7 0-12.2.2l-.5-.5v-2.8c-1.6 1.3-4.9 4.1-10.6 4.1-7.5 0-13.4-5.3-13.4-13.5 0-3.4 1.5-7.8 5.7-10.5 4.6-2.8 8.9-3.7 18.1-4.9 0-1.1-.2-2.5-1-3.3-1-1-2.1-1.5-5-1.5-5.1 0-10.1 2-12.8 3.1l-.6-.3.4-8.3.5-.6c4.4-1.3 8.4-2.5 15-2.5 9.8 0 12.9 3.1 14.4 5.5 2 3.2 2 6.2 1.9 13.1v5.6zm-12.5-2.7c-5.2.7-11.3 1.5-11.3 6.6 0 3.2 2.3 4.7 5.1 4.7 2.5 0 4.6-1.1 6.2-2v-9.3zM198.1 93.4c-6.1 0-7.4.1-12.5.2l-.5-.5c0-2.6.1-5.3.1-7.9 0-2.9-.1-13.4-.2-15.9-.2-2.8-.6-7.3-4.8-7.3-2.5 0-4.3 1.3-5.9 2.4.1 13.7.2 16.7.6 28.5l-.5.5c-6.1 0-7.3 0-12.8.2l-.5-.5c.1-4.9.1-9.8.1-14.7 0-12.5-.5-17.3-1.1-24l.5-.5c5.7-.8 7-1 12.9-2.2l.8.5-.2 4.2c3.5-2.1 7.6-4.5 12.3-4.5 2.8 0 7.1.6 9.5 4.6 1.9 3.1 2 6.7 2.1 14v6c.2 7.5.2 9.6.5 16.4l-.4.5zM244.6 93.5c-5.7 0-7.2 0-12.5.2l-.4-.5.2-3c-1.8 1.6-4.7 4.1-10.1 4.1-2.5 0-6.7-.6-10-3.4-4.5-3.7-6.1-9.7-6.1-15.7 0-7.9 2.2-14.2 7.6-18.4 5.8-4.6 13-4.4 18.8-4.3.1-8.7 0-10.6-.5-17.8l.4-.5 12.6-2 .5.5c-.3 10.1-.6 18.5-.6 38.7 0 10 .2 14.6.5 21.5l-.4.6zm-15.3-31.9c-8.6 0-10.3 6.6-10.3 12.5 0 1.5 0 11 7.4 11 2.1 0 3.7-.9 5.2-1.8.2-9.3.3-11.3.2-21.4-1-.2-1.6-.3-2.5-.3M16.4 5.8h3.7V20h-3.7V5.8zM50.4 20.9c1 1.3 2.8 1.8 4.3 1.8 2.4 0 3.8-1.3 3.8-3.6v-.9c-1 1.1-2.2 1.6-3.9 1.6-3.1 0-5.6-2.3-5.6-6.5V5.8h3.7V13c0 2.6 1 3.9 2.6 3.9 1.4 0 2.6-1.2 3.2-2v-9h3.7v13c0 4.4-3 6.9-7.5 6.9-2.4 0-4.3-.7-5.9-2.1l1.6-2.8zM90.4 19c-1.3.8-2.3 1.3-4.6 1.3-3 0-4.9-1.7-4.9-4.5v-10h3.7v8.6c0 2 1 2.6 2.6 2.6h3.1V5.8H94V20h-3.7v-1zM118.7 6.8c1.3-.8 2.3-1.3 4.6-1.3 3 0 4.9 1.7 4.9 4.5v10h-3.7v-8.6c0-2-1-2.6-2.6-2.6h-3.1V20H115V.5h3.7v6.3zM235.7 6.8c1.3-.8 2.3-1.3 4.6-1.3 3 0 4.9 1.7 4.9 4.5v10h-3.7v-8.6c0-2-1-2.6-2.6-2.6h-3.1V20h-3.7V.4h3.7v6.4zM176 16.5V9.1h-2.5l.9-3.3h1.5V2h3.8v3.9h2.9v3.3h-2.9v6.4c0 .9.5 1.6 1.3 1.6.6 0 1.1-.2 1.3-.4l.8 2.8c-.6.5-1.6.9-3.1.9-2.6-.1-4-1.5-4-4zM13.4 8.3H4.5V4h9.1V.4H.4V20h4.1v-8.2h7.9zM222.8 16.5V9.1h-2.4l.9-3.3h1.5V2h3.8v3.9h2.9v3.3h-2.9v6.4c0 .9.5 1.6 1.3 1.6.6 0 1.1-.2 1.3-.4l.8 2.8c-.6.5-1.6.9-3.1.9-2.7-.1-4.1-1.5-4.1-4zM201.8 10.4l-3 9.6h-4l-4.3-14.2h3.9l2.6 9.5 3.1-9.5h3.3l3.1 9.5 2.6-9.5h3.9L208.8 20h-4l-3-9.6zM20.2 3.4V0l-3.7.8v2.6zM214.6 5.8h3.7V20h-3.7V5.8zM218.3 3.4V0l-3.6.8v2.6zM71.6 5.6c-4.7 0-7.2 2.8-7.2 6.8v1.3c0 4 2.5 6.8 7.2 6.8s7.2-2.8 7.2-6.8v-1.3c0-4-2.6-6.8-7.2-6.8zm3.4 8.1c0 2.2-1.1 3.8-3.4 3.8s-3.4-1.6-3.4-3.8v-1.3c0-2.2 1.1-3.8 3.4-3.8s3.4 1.6 3.4 3.8v1.3zM38.5 16.7c-.2.2-.7.3-1.1.3-.8 0-1.3-.7-1.3-1.6V.4h-3.7v16c0 2.5 1.4 3.9 4 3.9 1.5 0 2.5-.4 3.1-.9l-.1-.2-.9-2.5zM30 16.7c-.2.2-.7.3-1.1.3-.8 0-1.3-.7-1.3-1.6V.4h-3.7v16c0 2.5 1.4 3.9 4 3.9 1.5 0 2.5-.4 3.1-.9l-.1-.2-.9-2.5zM167.6 11c.6-.9 1.7-1.5 2.7-1.5h.9l1-3.9h-.1c-1.8 0-3.5 1-4.5 2.3V5.8h-3.7V20h3.7v-9zM100.8 11c.6-.9 1.7-1.5 2.7-1.5h.9l1-3.9h-.1c-1.8 0-3.5 1-4.5 2.3V5.8h-3.7V20h3.7v-9zM143.5 15.9c-1.2.9-3 1.7-5.4 1.7-1.8 0-2.9-1-3.3-2.5l10.4-1.6v-1.1c0-4-2.5-6.8-7.2-6.8s-7.2 2.8-7.2 6.8v1.3c0 4 2.5 6.8 7.2 6.8 3.1 0 5.1-1.1 6.4-2l-.9-2.6zm-9-3.5c0-2.2 1.1-3.8 3.4-3.8 2 0 3.1 1.2 3.4 3l-6.8 1v-.2zM153.9 5.7c-4.7 0-7.2 2.8-7.2 6.8v1.1c0 4 3 6.8 6.1 6.8 1.9 0 3.4-.5 4.3-1.3v1h3.7V5.7h-6.9zm3.3 11.5H154c-2.3 0-3.4-1.6-3.4-3.8v-1c0-2.2 1.1-3.8 3.4-3.8h3.3v8.6z"/></svg>