<?xml version="1.0" encoding="utf-8"?>
<!-- Generator: Adobe Illustrator 22.1.0, SVG Export Plug-In . SVG Version: 6.00 Build 0)  -->
<svg version="1.1" id="Layer_1" xmlns="http://www.w3.org/2000/svg" xmlns:xlink="http://www.w3.org/1999/xlink" x="0px" y="0px"
	 width="331px" height="74.5px" viewBox="0 0 331 74.5" style="enable-background:new 0 0 331 74.5;" xml:space="preserve">
<style type="text/css">
	.st0{fill:#FFFFFF;}
</style>
<path class="st0" d="M292.1,29.5c-0.9-1.9-1.2-3.8-0.8-5.8c0.4-2.8,0.8-4.9,1.8-7.7c0.9-1.4,1.2-3.1,2.1-4.5l-0.1-0.1
	c0.9-0.8,1-2.5,1.5-3.3c1.8,0.3,3,1.8,4.3,3.4c0.8,2,0.2,3.9-0.6,5.8c-2.3,4.7-4.5,9.6-7.3,14C292.9,30.5,291.9,30,292.1,29.5
	 M290.3,26.9c-0.9,0-1.7-0.6-2.2-1.2c-2.2-2.4-4.8-4.9-6.5-7.5c-0.3-1.7-1.7-3.3-0.9-5.1c1.2-2.4,3.7-3.5,6-4.1
	c0.3-0.9,0.9,0.1,1.4-0.4c2.3-0.5,4.6-1.9,7.1-1c-1.7,2.6-2.9,5.7-3.7,8.5c-0.5,0-0.3,0.6-0.5,0.8C289.7,20.3,289.9,23.1,290.3,26.9
	 M287.5,41.4c-8.1-1-16.7-0.3-24,2.6c-0.1-1.4-0.4-2.7,0.3-3.9c4.3-5.6,13-4.4,18.7-2.6c0.7,0.3,1.4,0.7,2.2,0.7
	C285.2,39.9,287.7,39.4,287.5,41.4 M281.8,49.5c-3.8,2.4-8.6,5.8-13.3,2.9c-2.1-1.5-3.9-3.6-4.5-5.9c1.6-1.4,3.8-1.8,5.9-1.6
	c0.4,0,0.8-0.6,1.1,0c1-0.6,1.9-0.1,3-0.4l0.3,0.3c2.3-0.1,5.2,0.1,7.6,0.8c1,0,2.2,0.1,3,0.8C284.5,47.7,282.8,48.6,281.8,49.5
	 M293.7,35.8c-0.3-1.2-0.1-2.6-0.7-3.7c0.7-0.5,1.3-1.2,2.2-1.1c0.8-1,2.2-0.8,2.9-1.8l0.4,0.4c1.2-0.2,1.9-0.7,2.9-1.4
	c1.7-0.4,3.9-1.1,4.4-3.2c2.7-2.7,3.2-6.2,3.9-9.9c-0.4-1.1-0.2-2.5-1.2-3.4c0.4-0.6-0.3-1.3-0.7-1.7c-1.3-1.8-2.8-3.5-4.7-5.1
	c-0.4-1-1.9-1.2-2.6-2.2c-2.2-1.2-4.7-2.7-7.1-2.5L293.2,0c-1.1,0.2-2,0.2-3.2,0.5c-1.3-0.3-2.6,0.5-4,0.4c-2.6,1-5.5,1.7-7.7,3.5
	c-2.1,0.8-3.6,2.7-4.8,4.4c-0.9,0.5-1.1,1.7-1.4,2.7c0.2,0,0.5-0.1,0.6,0.1c0.1,0.1-0.1,0.2-0.1,0.3c-0.1,0-0.3,0.1-0.4-0.1v1.6
	c0,1,0.6,2,1,2.7c1,3.2,3.6,5.9,5.5,8.8h-8c-3.8,0.8-7.6,1-11.1,3c-2,1.3-4,3.7-4.8,6.3c-0.6,3.8-1.3,8.3,0,11.9
	c0,0.7,0.5,1.5,0.1,2.1h0.3c2,6.2,6,13.8,13,15.8c4.3,0.9,7.9-1.7,10.1-4.7c1-0.6,1.3-1.9,2.2-2.5c-0.4-1.4,1.1-1.7,1.4-2.9
	c2.6-1.9,2.6-5.6,5.3-7.5c0.4,0.1,0.9-0.2,1.1,0.3c-0.2,4.7-1.6,8.8-3,13c-1.4,4.9-4.4,9.8-9.1,13.1c0,0.8-1.2,0.9-0.9,1.4l1.6-0.5
	c1.5-0.2,2.5-2.1,3.7-3h0.3c5.8-6.1,10.3-12.7,12.5-20.2c0.7-3,1-7.2,0.3-10.3c0.1-0.7-0.6-1.4-0.5-1.9L293.7,35.8z"/>
<path class="st0" d="M293.6,38c0.1,0.9,1.1,1,1.8,1.1c1.8-0.6,3.9-0.9,4.8-2.9c3.6-2.3,7-4.9,11-6.3c3.4-1,8.5-3,11.5,0.1
	c2,6.9-2.2,13-5.2,18.7c-2.1,2.2-3.3,6.3-7,5.6c-1.4-0.7-3-1.9-3.1-3.6c-0.1-0.7-1-0.7-0.3-1.5c-0.9-0.8-0.1-2.4-0.4-3.3
	c0.4-1.7,1.2-3.2,2.9-4.1c1.8-0.6,3.9-0.2,5.2,1.1c0.7,2.2,0.3,4.9-1.4,6.6h0.4c1.4-1.4,3-2.9,4-4.7c-0.1-0.5,0.2-0.9,0.4-1.3
	c0.1-0.4,0.4-1,0-1.2c0-0.2,0.2-0.3,0.3-0.4c-0.4-0.2-0.5-0.7-0.3-1c-1.3-2.1-3-3.3-5.2-4.1c-5.8-2-11.1,1.3-15.2,5.1
	c-0.2-0.1-0.1-0.3-0.1-0.4c-0.9,0.7-0.4,2.2-1.2,2.7c0.2,1.1-0.1,3.1-0.4,4c0.7,0.5,0.1,1.5,0.5,2c0.4,0.7-0.3,1.7,0.4,2.2
	c0.7,2.8,3.3,4.6,5.3,6.6c1,0.7,2.4,0.7,3.2,1.6c0.5,1.2,1.8-0.1,2.5,1.1c1.5,0.2,3.3,0.8,4.9,0.5c0.8,0,1.9-0.2,2.6-0.7
	c1.7-0.3,3.2-1.4,4.5-2.7c0.6-0.2,0.8-1.1,1.4-1.2c0.6-1.4,1.8-2.4,2.5-3.7c-0.4-1,1.1-1.2,1.1-2.2c-0.1,0-0.2-0.1-0.3-0.1
	c1.5-2.3,3-5.4,4.5-8.1c-0.2-0.6,0.5-1.2,0.8-1.8c1.4-3.7,1.3-7.2,0.7-11.1c-1.1-2.8-3-5-5.6-6.6c-4.8-1.7-9.8-1.6-14.4,0.9
	c-0.3,0-0.7-0.1-0.8,0.3l-0.1-0.1c-5.6,2.8-11.4,6.1-15.8,11L293.6,38z"/>
<path class="st0" d="M14.6,11.4c-0.2,10.6-0.4,21.1-0.4,31.7c0,11.1,0.2,14.6,0.5,21.7l-0.5,0.5c-6.4,0-7.9,0-13.6,0.2l-0.4-0.5
	c0.3-8,0.5-12.6,0.5-21.7c0-19.5-0.2-23.4-0.7-31.7l0.3-0.5c5.5,0.1,7.3,0.1,13.9-0.2L14.6,11.4z"/>
<path class="st0" d="M45.4,37.2c-1.1-0.6-1.8-1.1-3.1-1.1c-5.2,0-5.2,5.1-5.2,8.5c0,5.3,0.5,13.9,0.8,20.1l-0.4,0.5
	c-6.1-0.1-7.4,0-13,0.2L24,65.1c0.2-6.4,0.2-12.6,0.2-18.9c0-10.6-0.2-14.1-0.7-19.8l0.5-0.5c5.6-0.8,7-1.1,12.7-2.3l0.6,0.6l-0.2,7
	c2.5-5.7,6-7.4,9.1-7.4c0.5,0,1.1,0.1,1.6,0.1l0.5,0.5l-2.1,12.5L45.4,37.2z"/>
<path class="st0" d="M87.2,54.2l-0.5,8.6l-0.5,0.6c-4.1,1.6-6.8,2.8-13.2,2.8c-5.5,0-15.9-0.9-20.4-11.3c-1.2-2.7-1.8-6.4-1.8-10
	c0-13.2,8-21.1,20-21.1c1.8,0,3.5,0.2,5.4,0.7c2.6,0.6,8.5,2.5,11.2,11.5c1.1,3.8,1.1,7.7,1.2,11.4l-0.5,0.5l-24.7,0.5
	c0.3,1.5,0.5,3.1,1.7,4.7c1.8,2.8,5,4.2,9.6,4.2c5.6,0,9-1.8,11.9-3.3L87.2,54.2z M76.3,39.9c0-1.8-0.1-3.6-1.1-5.3
	c-0.8-1.4-2.4-2.7-4.9-2.7c-1.1,0-2.1,0.2-3.1,0.8c-2.9,1.8-3.4,5.1-3.7,7.4L76.3,39.9z"/>
<path class="st0" d="M108.8,65.3c-5.6-0.1-7.7,0-12.8,0.2L95.5,65c0.3-7.6,0.5-12.2,0.5-20.4c0-4.5,0-9-0.1-13.6
	c-0.2-12.4-0.2-14.9-1-24.3l0.3-0.5l13.1-2.1l0.5,0.5c-0.3,8.3-0.4,11.7-0.4,19c0,24.2,0.4,32.2,0.8,41.1L108.8,65.3z"/>
<path class="st0" d="M152.1,48.1c0,7.2,0,9.1,0.5,16.6l-0.4,0.5c-5-0.1-6.7,0-12.2,0.2l-0.5-0.5v-2.8c-1.6,1.3-4.9,4.1-10.6,4.1
	c-7.5,0-13.4-5.3-13.4-13.5c0-3.4,1.5-7.8,5.7-10.5c4.6-2.8,8.9-3.7,18.1-4.9c0-1.1-0.2-2.5-1-3.3c-1-1-2.1-1.5-5-1.5
	c-5.1,0-10.1,2-12.8,3.1l-0.6-0.3l0.4-8.3l0.5-0.6c4.4-1.3,8.4-2.5,15-2.5c9.8,0,12.9,3.1,14.4,5.5c2,3.2,2,6.2,1.9,13.1L152.1,48.1
	z M139.6,45.4c-5.2,0.7-11.3,1.5-11.3,6.6c0,3.2,2.3,4.7,5.1,4.7c2.5,0,4.6-1.1,6.2-2V45.4z"/>
<path class="st0" d="M198.1,65.2c-6.1,0-7.4,0.1-12.5,0.2l-0.5-0.5c0-2.6,0.1-5.3,0.1-7.9c0-2.9-0.1-13.4-0.2-15.9
	c-0.2-2.8-0.6-7.3-4.8-7.3c-2.5,0-4.3,1.3-5.9,2.4c0.1,13.7,0.2,16.7,0.6,28.5l-0.5,0.5c-6.1,0-7.3,0-12.8,0.2l-0.5-0.5
	c0.1-4.9,0.1-9.8,0.1-14.7c0-12.5-0.5-17.3-1.1-24l0.5-0.5c5.7-0.8,7-1,12.9-2.2l0.8,0.5l-0.2,4.2c3.5-2.1,7.6-4.5,12.3-4.5
	c2.8,0,7.1,0.6,9.5,4.6c1.9,3.1,2,6.7,2.1,14v6c0.2,7.5,0.2,9.6,0.5,16.4L198.1,65.2z"/>
<path class="st0" d="M244.6,65.3c-5.7,0-7.2,0-12.5,0.2l-0.4-0.5l0.2-3c-1.8,1.6-4.7,4.1-10.1,4.1c-2.5,0-6.7-0.6-10-3.4
	c-4.5-3.7-6.1-9.7-6.1-15.7c0-7.9,2.2-14.2,7.6-18.4c5.8-4.6,13-4.4,18.8-4.3c0.1-8.7,0-10.6-0.5-17.8l0.4-0.5l12.6-2l0.5,0.5
	c-0.3,10.1-0.6,18.5-0.6,38.7c0,10,0.2,14.6,0.5,21.5L244.6,65.3z M229.3,33.4c-8.6,0-10.3,6.6-10.3,12.5c0,1.5,0,11,7.4,11
	c2.1,0,3.7-0.9,5.2-1.8c0.2-9.3,0.3-11.3,0.2-21.4C230.8,33.5,230.2,33.4,229.3,33.4"/>
</svg>
